<?xml version="1.0" encoding="UTF-8"?>
<svg version="1.1" xmlns="http://www.w3.org/2000/svg" width="512" height="512">
<path d="M0 0 C13 22.09677419 13 22.09677419 13 27 C13.68400879 26.91435791 14.36801758 26.82871582 15.07275391 26.74047852 C18.25638088 26.34406423 21.44067554 25.95327041 24.625 25.5625 C25.70007813 25.42779297 26.77515625 25.29308594 27.8828125 25.15429688 C42.37933362 23.38537614 56.72590172 22.79701711 71.3125 22.8125 C72.18896179 22.81243958 73.06542358 22.81237915 73.96844482 22.81231689 C93.11919817 22.83106095 112.08427754 23.81918084 131 27 C131.24878906 26.18789062 131.49757813 25.37578125 131.75390625 24.5390625 C133.23018109 20.34625685 135.03818579 16.3896972 136.9375 12.375 C137.28490234 11.62476562 137.63230469 10.87453125 137.99023438 10.1015625 C138.33248047 9.37453125 138.67472656 8.6475 139.02734375 7.8984375 C139.48741821 6.91883057 139.48741821 6.91883057 139.95678711 5.91943359 C141.16108601 3.70361381 142.26663297 1.84436829 144 0 C145.99487305 -0.27734375 145.99487305 -0.27734375 148.32421875 0.0625 C149.66105713 0.25585938 149.66105713 0.25585938 151.02490234 0.453125 C156.6584621 1.48867184 162.23730892 2.68605049 167.8125 4 C168.4603949 4.15239136 169.10828979 4.30478271 169.77581787 4.46179199 C194.20668747 10.24654354 217.91769588 18.13342408 241 28 C242.39061646 28.56243408 242.39061646 28.56243408 243.80932617 29.13623047 C250.38756866 32.03033846 253.44313426 35.42654054 256.9375 41.625 C257.43636719 42.46256836 257.93523437 43.30013672 258.44921875 44.16308594 C259.48293498 45.90748207 260.50489701 47.65889582 261.51513672 49.41699219 C262.91311398 51.84885661 264.3425313 54.2584918 265.78515625 56.6640625 C310.36827813 131.56338755 329.14120421 211.05267943 328.02557373 297.61346436 C328.00211575 299.80255818 327.99406743 301.99097516 327.99267578 304.18017578 C327.89529918 322.32309957 327.89529918 322.32309957 323.79296875 328.1171875 C321.24956397 330.12825174 318.79388486 331.64089644 315.87597656 333.04248047 C313.07826309 334.47046488 310.54341812 336.24576992 307.94506836 338.00415039 C291.68705348 348.93154654 274.45806075 358.16205695 257 367 C255.90316895 367.56050049 255.90316895 367.56050049 254.78417969 368.13232422 C211.67690881 390 211.67690881 390 195 390 C193.2774414 387.94041906 191.90836149 386.01390819 190.5 383.75 C190.07638184 383.09193359 189.65276367 382.43386719 189.21630859 381.75585938 C184.06687845 373.68226857 179.13212267 365.460914 174.29785156 357.1953125 C173.46192306 355.78134165 172.60583483 354.37900108 171.72558594 352.9921875 C168.95421815 348.52760186 168.95421815 348.52760186 169.18115234 345.91235352 C170 344 170 344 173.515625 342.24609375 C175.0891334 341.63128033 176.66769935 341.02931829 178.25 340.4375 C189.26436268 336.08667242 199.60260296 330.64434585 210 325 C210.22543973 322.86758564 210.22543973 322.86758564 208.46630859 321.32958984 C206.00301732 319.37091402 203.97490297 318.05669393 201 317 C196.48493874 317.66009668 192.69658391 319.6271163 188.625 321.625 C186.2201022 322.70341028 183.81304696 323.77213313 181.3984375 324.828125 C180.78564941 325.10002655 180.17286133 325.3719281 179.54150391 325.65206909 C155.7569628 336.07654857 128.69026381 341.02067165 103 344 C102.20722656 344.09571289 101.41445313 344.19142578 100.59765625 344.29003906 C91.58685053 345.25252558 82.55212535 345.24359883 73.5 345.25 C72.63928894 345.25067474 71.77857788 345.25134949 70.89178467 345.25204468 C30.96212029 345.20258902 -7.35738058 336.99862079 -44.41015625 322.234375 C-45.37131348 321.85450439 -46.3324707 321.47463379 -47.32275391 321.08325195 C-49.01473861 320.39865081 -50.69620575 319.68688741 -52.36083984 318.93823242 C-54.66097015 317.89021056 -54.66097015 317.89021056 -58 317 C-60.60665839 317.87910526 -60.60665839 317.87910526 -62.5 319.8125 C-63.1703125 320.39644531 -63.840625 320.98039062 -64.53125 321.58203125 C-65.0159375 322.04996094 -65.500625 322.51789063 -66 323 C-64.59006217 327.2298135 -61.63858306 328.13493574 -57.875 330.0625 C-57.14031494 330.44591553 -56.40562988 330.82933105 -55.64868164 331.22436523 C-45.67146407 336.3285343 -35.32409514 340.65438127 -25 345 C-26.60625587 350.79772828 -29.45265741 355.70105375 -32.4375 360.875 C-32.96520996 361.79450439 -33.49291992 362.71400879 -34.03662109 363.66137695 C-45.67150402 383.67150402 -45.67150402 383.67150402 -52 390 C-59.15144354 388.85347599 -65.83563908 386.47064838 -72.625 384 C-73.71675537 383.60337158 -74.80851074 383.20674316 -75.93334961 382.7980957 C-107.24824703 371.25246455 -136.50374897 356.08385496 -164.25 337.625 C-164.84648346 337.22819031 -165.44296692 336.83138062 -166.05752563 336.42254639 C-167.77502325 335.27727127 -169.48968951 334.12790416 -171.203125 332.9765625 C-172.69827637 331.97230225 -172.69827637 331.97230225 -174.22363281 330.94775391 C-181.74735548 325.66950387 -181.74735548 325.66950387 -182.7512207 323.00927734 C-182.80882568 322.2920752 -182.86643066 321.57487305 -182.92578125 320.8359375 C-183.00022461 319.98273926 -183.07466797 319.12954102 -183.15136719 318.25048828 C-183.20454102 317.30157715 -183.25771484 316.35266602 -183.3125 315.375 C-183.38243164 314.35519043 -183.45236328 313.33538086 -183.52441406 312.28466797 C-187.72590158 240.35230413 -176.40688775 168.60840759 -146 103 C-145.53867676 101.99517578 -145.07735352 100.99035156 -144.60205078 99.95507812 C-137.9560569 85.54229628 -130.77059053 71.52520502 -122.68408203 57.86572266 C-121.53566045 55.91150803 -120.40447579 53.94708602 -119.28857422 51.97412109 C-107.19380596 30.60772128 -107.19380596 30.60772128 -95.31298828 26.77099609 C-92.50942808 25.83647603 -89.77694275 24.75877523 -87.02734375 23.67578125 C-24.39651455 -0.69704327 -24.39651455 -0.69704327 0 0 Z M-46.30859375 177.91796875 C-56.21942172 190.11767154 -60.56877373 205.389733 -59 221 C-56.83668612 235.98228952 -50.40075309 247.96694395 -38.87890625 257.8125 C-29.3447877 264.8100182 -17.65364721 267.39445351 -6 266 C1.96100124 264.25270256 8.63792541 261.06746639 15 256 C15.60328125 255.52175781 16.2065625 255.04351562 16.828125 254.55078125 C27.25806185 245.2249143 32.3290324 231.6906892 33.2734375 218.05078125 C33.80287239 203.2899254 30.48357753 190.04668149 20.6875 178.75 C12.37572055 169.98485077 3.17971144 163.69907915 -9.12890625 162.76171875 C-23.8818888 162.44282607 -36.124215 167.07195982 -46.30859375 177.91796875 Z M123.75 178.1875 C114.70896309 189.00021485 110.17422856 202.92943321 110.65234375 217.0234375 C112.47661739 232.64249949 118.10759598 246.47086013 130.2109375 256.90625 C140.21513464 264.54699603 151.54003392 267.28731792 164 266 C175.75304435 263.93296749 185.51849274 257.12973204 193 248 C202.1776826 234.11324445 205.62991895 217.46575792 202.31640625 201.05859375 C200.34733709 193.61534893 197.47096317 187.26160081 193 181 C192.56042969 180.36578125 192.12085938 179.7315625 191.66796875 179.078125 C185.25064763 170.7189632 174.33935113 164.71082789 164 163 C147.67987254 161.75714385 135.09024024 166.3317943 123.75 178.1875 Z " fill="#000000" transform="translate(184,61)"/>
</svg>
